runtti.glyphspackage
{
glyphname = numbersign;
layers = (
{
layerId = m01;
shapes = (
{
closed = 1;
nodes = (
(375,422,l),
(457,682,l),
(506,644,l),
(259,644,l),
(343,682,l),
(273,422,l),
(295,454,l),
(-10,457,l),
(113,501,l),
(56,296,l),
(2,359,l),
(274,363,l),
(263,387,l),
(216,227,l),
(239,244,l),
(-60,247,l),
(54,291,l),
(-3,86,l),
(-48,149,l),
(211,153,l),
(201,182,l),
(117,-78,l),
(69,-39,l),
(316,-39,l),
(231,-78,l),
(303,182,l),
(275,153,l),
(434,153,l),
(424,182,l),
(341,-78,l),
(293,-39,l),
(540,-39,l),
(455,-78,l),
(526,182,l),
(493,153,l),
(795,149,l),
(687,87,l),
(744,291,l),
(803,247,l),
(528,244,l),
(538,226,l),
(586,387,l),
(551,363,l),
(845,359,l),
(746,297,l),
(803,501,l),
(853,457,l),
(582,454,l),
(598,422,l),
(681,682,l),
(730,644,l),
(483,644,l),
(567,682,l),
(496,422,l),
(522,454,l),
(364,454,l)
);
},
{
closed = 1;
nodes = (
(340,363,l),
(497,363,l),
(485,387,l),
(437,228,l),
(456,244,l),
(303,244,l),
(317,227,l),
(365,385,l)
);
}
);
width = 806;
},
{
associatedMasterId = m01;
layerId = "836F3783-C196-4362-BB96-2E858DAB80C4";
name = "000";
shapes = (
{
closed = 1;
nodes = (
(84,-158,l),
(64,-41,l),
(277,-41,l),
(221,-158,l),
(368,426,l),
(463,762,l),
(483,652,l),
(270,652,l),
(326,762,l),
(179,178,l)
);
},
{
closed = 1;
nodes = (
(344,-158,l),
(324,-41,l),
(537,-41,l),
(481,-158,l),
(643,487,l),
(722,769,l),
(743,652,l),
(530,652,l),
(586,762,l),
(439,178,l)
);
},
{
closed = 1;
nodes = (
(10,353,l),
(493,360,l),
(863,355,l),
(771,299,l),
(825,509,l),
(871,476,l),
(447,474,l),
(-2,480,l),
(101,509,l),
(47,298,l)
);
},
{
closed = 1;
nodes = (
(-50,114,l),
(433,121,l),
(803,116,l),
(711,65,l),
(765,275,l),
(811,237,l),
(387,235,l),
(-62,241,l),
(41,275,l),
(-13,64,l)
);
}
);
width = 816;
}
);
metricLeft = "=15";
metricRight = "=15";
unicode = 35;
}
{
glyphname = ampersand;
layers = (
{
layerId = m01;
shapes = (
{
closed = 1;
nodes = (
(501,203,l),
(380,142,l),
(542,154,l),
(131,212,l),
(227,104,l),
(240,414,l),
(105,256,l),
(412,423,l),
(383,369,l),
(373,536,l),
(417,503,l),
(213,525,l),
(252,428,l),
(278,683,l),
(242,593,l),
(373,667,l),
(241,625,l),
(558,597,l),
(511,571,l),
(570,860,l),
(642,790,l),
(218,801,l),
(459,888,l),
(-64,628,l),
(102,824,l),
(69,303,l),
(10,465,l),
(267,379,l),
(307,459,l),
(36,326,l),
(60,410,l),
(20,8,l),
(-92,114,l),
(461,-27,l),
(434,-28,l),
(793,132,l),
(681,65,l),
(601,394,l),
(537,330,l),
(783,308,l),
(678,262,l),
(717,556,l),
(755,507,l),
(436,504,l),
(502,565,l),
(388,425,l),
(431,540,l),
(458,114,l)
);
}
);
width = 720;
}
);
unicode = 38;
}
{
glyphname = quotesingle;
layers = (
{
layerId = m01;
shapes = (
{
closed = 1;
nodes = (
(238,790,l),
(33,790,l),
(50,829,l),
(32,531,l),
(13,586,l),
(180,568,l),
(96,516,l),
(228,814,l),
(261,712,l),
(151,856,l)
);
}
);
width = 240;
}
);
metricLeft = quoteright;
metricRight = quoteright;
unicode = 39;
}
{
glyphname = parenleft;
layers = (
{
layerId = m01;
shapes = (
{
closed = 1;
nodes = (
(37,604,l),
(35,135,l),
(-12,253,l),
(193,-176,l),
(118,-153,l),
(310,-59,l),
(283,-112,l),
(93,249,l),
(124,135,l),
(138,597,l),
(80,462,l),
(292,817,l),
(318,759,l),
(114,876,l),
(207,885,l),
(-12,472,l)
);
}
);
width = 293;
}
);
metricLeft = "=35";
metricRight = "=20";
unicode = 40;
}
{
glyphname = period;
kernLeft = period;
kernRight = period;
layers = (
{
layerId = m01;
shapes = (
{
closed = 1;
nodes = (
(228,198,l),
(262,165,l),
(-9,159,l),
(43,192,l),
(33,-46,l),
(-7,2,l),
(229,-2,l),
(191,-50,l)
);
}
);
width = 258;
},
{
associatedMasterId = m01;
layerId = "60646F0E-DAC6-44D6-82FC-379C209A2067";
name = "001";
shapes = (
{
closed = 1;
nodes = (
(208,199,l),
(237,166,l),
(-34,160,l),
(18,193,l),
(8,-45,l),
(-32,1,l),
(204,-3,l),
(161,-49,l)
);
}
);
width = 232;
}
);
metricLeft = "=35";
metricRight = "=35";
unicode = 46;
}
{
glyphname = one;
kernLeft = "1";
kernRight = I;
layers = (
{
layerId = m01;
shapes = (
{
closed = 1;
nodes = (
(188,578,l),
(158,622,l),
(151,566,l),
(86,-83,l),
(63,0,l),
(343,0,l),
(294,-83,l),
(348,844,l),
(372,790,l),
(129,793,l),
(271,811,l),
(-38,714,l),
(-3,786,l),
(90,507,l),
(-6,527,l),
(197,622,l),
(132,612,l)
);
}
);
width = 375;
}
);
metricRight = I;
unicode = 49;
}
{
glyphname = four;
kernLeft = "4";
kernRight = "4";
layers = (
{
layerId = m01;
shapes = (
{
closed = 1;
nodes = (
(304,550,l),
(361,658,l),
(279,623,l),
(390,593,l),
(342,559,l),
(410,726,l),
(357,730,l),
(333,548,l),
(314,332,l),
(305,248,l),
(250,-83,l),
(219,0,l),
(499,0,l),
(464,-83,l),
(484,292,l),
(494,343,l),
(544,844,l),
(577,790,l),
(284,793,l),
(343,846,l),
(-38,312,l),
(-39,397,l),
(69,156,l),
(-17,216,l),
(339,218,l),
(578,211,l),
(556,126,l),
(575,482,l),
(586,374,l),
(344,365,l),
(108,366,l),
(116,237,l)
);
}
);
width = 564;
}
);
unicode = 52;
}
{
glyphname = seven;
kernLeft = "1";
kernRight = "7";
layers = (
{
layerId = m01;
shapes = (
{
closed = 1;
nodes = (
(370,866,l),
(559,790,l),
(-40,793,l),
(34,842,l),
(15,548,l),
(-68,592,l),
(422,636,l),
(239,683,l),
(337,556,l),
(327,702,l),
(269,564,l),
(49,-23,l),
(2,0,l),
(319,0,l),
(265,-42,l),
(529,827,l),
(587,634,l)
);
}
);
width = 487;
}
);
unicode = 55;
}
{
glyphname = eight;
kernLeft = "8";
kernRight = "3";
layers = (
{
layerId = m01;
shapes = (
{
closed = 1;
nodes = (
(247,363,l),
(450,287,l),
(403,434,l),
(383,110,l),
(429,213,l),
(311,152,l),
(505,156,l),
(140,198,l),
(240,123,l),
(242,414,l),
(98,231,l),
(366,385,l),
(248,461,l),
(-19,345,l),
(62,410,l),
(36,27,l),
(-79,133,l),
(378,-27,l),
(342,-28,l),
(695,132,l),
(559,-29,l),
(606,496,l),
(720,347,l),
(326,479,l)
);
},
{
closed = 1;
nodes = (
(351,477,l),
(254,515,l),
(263,428,l),
(285,683,l),
(247,593,l),
(378,667,l),
(140,648,l),
(503,594,l),
(408,673,l),
(399,461,l),
(431,539,l),
(290,457,l),
(380,402,l),
(656,551,l),
(569,446,l),
(598,744,l),
(721,664,l),
(264,827,l),
(464,888,l),
(-59,628,l),
(103,824,l),
(74,303,l),
(8,496,l),
(281,403,l)
);
}
);
width = 636;
}
);
metricLeft = "=|three";
metricRight = three;
unicode = 56;
}
{
glyphname = nine;
kernLeft = "9";
kernRight = "0";
layers = (
{
layerId = m01;
shapes = (
{
closed = 1;
nodes = (
(231,191,l),
(413,399,l),
(420,375,l),
(143,461,l),
(231,420,l),
(238,708,l),
(205,590,l),
(294,647,l),
(218,630,l),
(456,568,l),
(368,662,l),
(354,387,l),
(282,324,l),
(280,332,l),
(377,302,l),
(350,371,l),
(320,115,l),
(402,221,l),
(241,120,l),
(317,134,l),
(23,206,l),
(81,268,l),
(5,-105,l),
(-5,10,l),
(334,-22,l),
(219,-75,l),
(686,208,l),
(511,0,l),
(576,775,l),
(706,631,l),
(210,840,l),
(343,848,l),
(-77,612,l),
(75,839,l),
(30,324,l),
(-73,386,l),
(287,228,l)
);
}
);
width = 594;
}
);
metricLeft = "=|six";
metricRight = zero;
unicode = 57;
}
{
glyphname = at;
layers = (
{
associatedMasterId = m01;
layerId = "745824F2-EE86-40A8-8FE1-BFFE565DA2F1";
name = "000";
shapes = (
{
closed = 1;
nodes = (
(680,-6,l),
(636,163,l),
(670,132,l),
(361,50,l),
(454,67,l),
(100,213,l),
(157,152,l),
(158,658,l),
(108,584,l),
(388,728,l),
(310,709,l),
(724,586,l),
(677,620,l),
(658,289,l),
(689,330,l),
(560,264,l),
(639,265,l),
(545,311,l),
(565,277,l),
(598,614,l),
(622,536,l),
(303,617,l),
(412,624,l),
(164,506,l),
(248,611,l),
(239,231,l),
(194,264,l),
(459,170,l),
(433,161,l),
(547,297,l),
(536,276,l),
(325,307,l),
(359,277,l),
(346,528,l),
(327,470,l),
(391,506,l),
(312,496,l),
(512,473,l),
(473,495,l),
(458,193,l),
(466,264,l),
(566,167,l),
(524,165,l),
(748,250,l),
(736,191,l),
(797,741,l),
(874,621,l),
(269,836,l),
(440,847,l),
(-52,616,l),
(70,755,l),
(36,39,l),
(-64,157,l),
(470,-34,l),
(338,-33,l),
(707,36,l)
);
}
);
width = 807;
},
{
layerId = m01;
name = Regular;
shapes = (
{
closed = 1;
nodes = (
(842,-208,l),
(786,5,l),
(830,-49,l),
(437,-150,l),
(559,-136,l),
(106,47,l),
(160,-9,l),
(164,633,l),
(116,565,l),
(472,744,l),
(373,719,l),
(898,559,l),
(852,601,l),
(823,142,l),
(853,190,l),
(735,129,l),
(792,144,l),
(685,202,l),
(706,155,l),
(748,583,l),
(768,494,l),
(362,604,l),
(500,614,l),
(185,464,l),
(282,585,l),
(273,97,l),
(226,129,l),
(562,10,l),
(532,9,l),
(676,181,l),
(659,164,l),
(391,203,l),
(445,155,l),
(426,482,l),
(402,399,l),
(483,444,l),
(373,431,l),
(629,394,l),
(570,432,l),
(550,48,l),
(570,139,l),
(709,3,l),
(674,3,l),
(928,111,l),
(903,41,l),
(980,739,l),
(1088,587,l),
(321,860,l),
(537,873,l),
(-87,580,l),
(78,757,l),
(35,-151,l),
(-102,-2,l),
(576,-244,l),
(408,-243,l),
(876,-155,l)
);
}
);
width = 988;
}
);
metricLeft = "=40";
metricRight = "=20";
unicode = 64;
}
{
glyphname = A;
kernLeft = A;
kernRight = A;
layers = (
{
anchors = (
{
name = ogonek;
pos = (606,0);
},
{
name = top;
pos = (372,790);
}
);
layerId = m01;
shapes = (
{
closed = 1;
nodes = (
(10,-44,l),
(-27,0,l),
(269,0,l),
(221,-44,l),
(308,684,l),
(344,695,l),
(159,594,l),
(185,659,l),
(215,560,l),
(243,624,l),
(171,588,l),
(72,527,l),
(130,614,l)
);
},
{
closed = 1;
nodes = (
(188,248,l),
(520,332,l),
(523,443,l),
(187,357,l)
);
},
{
closed = 1;
nodes = (
(702,632,l),
(424,844,l),
(625,790,l),
(-34,793,l),
(40,842,l),
(21,548,l),
(-62,588,l),
(488,628,l),
(373,661,l),
(456,591,l),
(437,685,l),
(397,-54,l),
(354,85,l),
(468,-55,l),
(369,0,l),
(734,-3,l),
(660,-52,l),
(679,242,l),
(762,197,l),
(540,177,l),
(591,94,l),
(664,862,l)
);
}
);
width = 698;
},
{
associatedMasterId = m01;
layerId = "D548C86F-92F2-4262-A50A-73AE130DC6CE";
name = "000";
shapes = (
{
closed = 1;
nodes = (
(633,738,l),
(410,901,l),
(615,860,l),
(-44,863,l),
(30,912,l),
(11,618,l),
(-72,651,l),
(478,712,l),
(348,740,l),
(431,670,l),
(397,751,l),
(425,25,l),
(381,92,l),
(645,-40,l),
(570,-64,l),
(698,168,l),
(741,134,l),
(555,185,l),
(590,102,l),
(601,923,l)
);
},
{
closed = 1;
nodes = (
(14,-44,l),
(-24,0,l),
(272,0,l),
(223,-44,l),
(297,754,l),
(334,765,l),
(62,596,l),
(121,684,l)
);
},
{
closed = 1;
nodes = (
(178,320,l),
(507,416,l),
(506,484,l),
(173,386,l)
);
}
);
width = 697;
},
{
associatedMasterId = m01;
layerId = "ABD9590F-1822-499D-9499-A3C2C571A938";
name = "001";
shapes = (
{
closed = 1;
nodes = (
(633,668,l),
(410,831,l),
(615,790,l),
(-44,793,l),
(30,842,l),
(11,548,l),
(-72,581,l),
(478,642,l),
(348,670,l),
(431,600,l),
(397,681,l),
(425,25,l),
(381,92,l),
(645,-40,l),
(570,-64,l),
(698,168,l),
(741,134,l),
(555,185,l),
(590,102,l),
(601,853,l)
);
},
{
closed = 1;
nodes = (
(14,-44,l),
(-24,0,l),
(272,0,l),
(223,-44,l),
(297,684,l),
(334,695,l),
(62,526,l),
(121,614,l)
);
},
{
closed = 1;
nodes = (
(178,250,l),
(507,346,l),
(506,414,l),
(173,316,l)
);
}
);
width = 697;
},
{
associatedMasterId = m01;
layerId = "3337BBDA-6FE8-4E9E-AFF9-BE18D73EF151";
name = "002";
shapes = (
{
closed = 1;
nodes = (
(14,-44,l),
(-24,0,l),
(272,0,l),
(223,-44,l),
(297,684,l),
(334,695,l),
(195,621,l),
(200,608,l),
(161,587,l),
(62,526,l),
(121,614,l)
);
},
{
closed = 1;
nodes = (
(178,250,l),
(507,346,l),
(506,414,l),
(173,316,l)
);
},
{
closed = 1;
nodes = (
(387,0,l),
(683,0,l),
(635,-44,l),
(613,853,l),
(645,668,l),
(431,831,l),
(615,790,l),
(-44,793,l),
(30,842,l),
(11,548,l),
(-72,581,l),
(478,642,l),
(363,673,l),
(446,603,l),
(419,681,l),
(417,-44,l)
);
}
);
width = 697;
}
);
metricRight = H;
unicode = 65;
}
{
glyphname = B;
kernLeft = B;
kernRight = B;
layers = (
{
layerId = m01;
shapes = (
{
closed = 1;
nodes = (
(206,389,l),
(222,431,l),
(266,283,l),
(222,293,l),
(311,345,l),
(422,417,l),
(672,563,l),
(576,446,l),
(650,744,l),
(737,663,l),
(290,835,l),
(361,837,l),
(181,620,l),
(167,648,l),
(518,580,l),
(434,678,l),
(425,464,l),
(557,612,l)
);
},
{
closed = 1;
nodes = (
(18,52,l),
(464,-41,l),
(317,-63,l),
(737,173,l),
(579,-52,l),
(636,446,l),
(730,376,l),
(413,476,l),
(489,488,l),
(263,335,l),
(263,340,l),
(514,284,l),
(422,350,l),
(420,79,l),
(453,201,l),
(368,138,l),
(511,159,l),
(221,168,l),
(264,116,l),
(285,767,l),
(340,703,l),
(76,835,l),
(141,859,l),
(13,627,l),
(-20,651,l),
(166,600,l),
(105,690,l),
(45,-43,l)
);
}
);
width = 666;
},
{
associatedMasterId = m01;
layerId = "3C9AAE7B-BE93-4533-8EFC-34AE01EBFD79";
name = "000";
shapes = (
{
closed = 1;
nodes = (
(189,440,l),
(205,501,l),
(249,353,l),
(205,379,l),
(652,641,l),
(559,504,l),
(633,773,l),
(715,704,l),
(273,903,l),
(345,902,l),
(165,685,l),
(150,738,l),
(491,648,l),
(432,707,l),
(423,522,l),
(532,661,l)
);
},
{
closed = 1;
nodes = (
(251,141,l),
(269,835,l),
(323,768,l),
(59,900,l),
(124,924,l),
(-4,692,l),
(-37,731,l),
(149,680,l),
(112,758,l),
(52,-64,l),
(16,88,l),
(504,-51,l),
(275,-77,l),
(709,119,l),
(566,-49,l),
(604,513,l),
(702,448,l),
(393,557,l),
(472,565,l),
(246,412,l),
(246,427,l),
(486,371,l),
(412,417,l),
(421,82,l),
(460,183,l),
(377,118,l),
(486,135,l),
(204,181,l)
);
}
);
width = 635;
},
{
associatedMasterId = m01;
layerId = "5535A081-BC64-4FB3-854C-C3E9CB5223B4";
name = "001";
shapes = (
{
closed = 1;
nodes = (
(194,389,l),
(210,431,l),
(254,283,l),
(210,293,l),
(299,345,l),
(410,417,l),
(660,563,l),
(564,446,l),
(638,742,l),
(725,658,l),
(278,830,l),
(349,832,l),
(169,615,l),
(155,647,l),
(506,584,l),
(422,676,l),
(413,464,l),
(545,610,l)
);
},
{
closed = 1;
nodes = (
(104,-55,l),
(1,0,l),
(512,-9,l),
(305,-58,l),
(725,178,l),
(567,-49,l),
(624,446,l),
(718,376,l),
(401,476,l),
(477,488,l),
(251,335,l),
(251,340,l),
(502,284,l),
(410,350,l),
(408,82,l),
(441,206,l),
(356,143,l),
(499,161,l),
(209,168,l),
(252,119,l),
(273,765,l),
(328,698,l),
(64,830,l),
(129,854,l),
(1,622,l),
(-32,646,l),
(154,595,l),
(93,688,l),
(33,-40,l),
(-10,85,l)
);
}
);
width = 643;
}
);
metricLeft = R;
unicode = 66;
}
{
glyphname = D;
kernLeft = A;
kernRight = O;
layers = (
{
anchors = (
{
name = top;
pos = (368,790);
}
);
layerId = m01;
shapes = (
{
closed = 1;
nodes = (
(181,659,l),
(211,560,l),
(240,624,l),
(168,588,l),
(69,527,l),
(90,575,l),
(39,-43,l),
(12,52,l),
(478,-41,l),
(331,-63,l),
(751,173,l),
(593,-52,l),
(681,862,l),
(711,610,l),
(433,822,l),
(642,790,l),
(-40,793,l),
(34,842,l),
(15,548,l),
(-68,588,l),
(505,630,l),
(376,649,l),
(477,565,l),
(454,685,l),
(434,79,l),
(467,201,l),
(382,138,l),
(525,159,l),
(215,168,l),
(258,116,l),
(281,765,l)
);
}
);
width = 685;
}
);
metricLeft = A;
metricRight = O;
unicode = 68;
}
{
glyphname = E;
kernLeft = E;
kernRight = E;
layers = (
{
anchors = (
{
name = ogonek;
pos = (447,0);
},
{
name = top;
pos = (309,790);
}
);
layerId = m01;
name = Regular;
shapes = (
{
closed = 1;
nodes = (
(218,332,l),
(474,329,l),
(441,295,l),
(457,545,l),
(488,485,l),
(231,467,l)
);
},
{
closed = 1;
nodes = (
(207,576,l),
(330,645,l),
(238,620,l),
(555,592,l),
(508,571,l),
(567,860,l),
(639,790,l),
(215,801,l),
(404,861,l),
(-72,631,l),
(86,828,l),
(25,-45,l),
(1,0,l),
(581,-2,l),
(504,-52,l),
(523,242,l),
(609,196,l),
(188,168,l),
(230,131,l),
(244,350,l),
(249,446,l),
(264,682,l)
);
}
);
width = 535;
},
{
associatedMasterId = m01;
layerId = "3A0C46B0-68A5-40B6-9CF1-7B97EABB8D28";
name = "000";
shapes = (
{
closed = 1;
nodes = (
(62,828,l),
(4,-45,l),
(-127,126,l),
(151,-86,l),
(-20,0,l),
(559,-3,l),
(482,-52,l),
(501,242,l),
(587,196,l),
(167,178,l),
(262,143,l),
(179,213,l),
(209,131,l),
(247,682,l),
(201,574,l),
(284,644,l),
(238,617,l),
(612,598,l),
(489,548,l),
(511,842,l),
(584,798,l),
(-1,790,l),
(176,866,l),
(-102,654,l)
);
},
{
closed = 1;
nodes = (
(197,352,l),
(459,340,l),
(426,306,l),
(442,556,l),
(473,496,l),
(210,487,l)
);
}
);
width = 516;
},
{
associatedMasterId = m01;
layerId = "9335EF9F-1FC1-40E5-A7FB-0FE09C3ED10F";
name = "001";
shapes = (
{
closed = 1;
nodes = (
(187,328,l),
(449,326,l),
(416,292,l),
(432,542,l),
(463,482,l),
(200,463,l)
);
},
{
closed = 1;
nodes = (
(204,199,l),
(231,132,l),
(241,637,l),
(200,569,l),
(323,638,l),
(225,620,l),
(528,585,l),
(420,495,l),
(620,857,l),
(614,772,l),
(520,825,l),
(576,857,l),
(478,746,l),
(518,759,l),
(208,829,l),
(409,856,l),
(-67,626,l),
(77,795,l),
(15,6,l),
(-34,126,l),
(365,-48,l),
(151,-12,l),
(547,0,l),
(483,-38,l),
(474,255,l),
(516,191,l),
(286,161,l),
(429,152,l)
);
}
);
width = 533;
},
{
associatedMasterId = m01;
layerId = "791913A0-208A-4F1E-85DD-70ACF3B1299B";
name = "002";
shapes = (
{
closed = 1;
nodes = (
(62,828,l),
(4,-45,l),
(-20,0,l),
(556,0,l),
(479,-52,l),
(498,242,l),
(584,197,l),
(167,168,l),
(209,131,l),
(247,682,l),
(179,629,l),
(612,599,l),
(489,548,l),
(511,842,l),
(584,798,l),
(-1,790,l)
);
},
{
closed = 1;
nodes = (
(197,342,l),
(449,339,l),
(416,305,l),
(432,555,l),
(463,495,l),
(210,477,l)
);
}
);
width = 533;
}
);
metricLeft = L;
unicode = 69;
}
{
glyphname = F;
kernLeft = E;
kernRight = F;
layers = (
{
layerId = m01;
shapes = (
{
closed = 1;
nodes = (
(217,294,l),
(484,291,l),
(451,257,l),
(467,507,l),
(498,447,l),
(230,429,l)
);
},
{
closed = 1;
nodes = (
(217,576,l),
(340,645,l),
(248,627,l),
(564,588,l),
(517,568,l),
(576,857,l),
(648,787,l),
(225,806,l),
(414,856,l),
(-62,626,l),
(95,746,l),
(21,-83,l),
(0,0,l),
(280,0,l),
(237,-83,l),
(252,336,l),
(271,684,l)
);
}
);
width = 544;
},
{
associatedMasterId = m01;
layerId = "51119BAE-74C1-4156-AB8E-D73A51075787";
name = "001";
shapes = (
{
closed = 1;
nodes = (
(200,569,l),
(323,638,l),
(225,620,l),
(528,585,l),
(420,495,l),
(620,857,l),
(614,772,l),
(520,825,l),
(576,857,l),
(478,746,l),
(518,759,l),
(208,829,l),
(409,856,l),
(31,673,l),
(95,746,l),
(21,-83,l),
(0,0,l),
(280,0,l),
(231,-83,l),
(272,684,l)
);
},
{
closed = 1;
nodes = (
(197,288,l),
(459,286,l),
(426,252,l),
(442,502,l),
(473,442,l),
(210,423,l)
);
}
);
width = 553;
}
);
metricLeft = E;
unicode = 70;
}
{
glyphname = G;
kernLeft = C;
kernRight = G;
layers = (
{
anchors = (
{
name = bottom;
pos = (320,0);
},
{
name = top;
pos = (359,790);
}
);
layerId = m01;
shapes = (
{
closed = 1;
nodes = (
(570,198,l),
(315,141,l),
(458,140,l),
(213,210,l),
(242,141,l),
(268,637,l),
(217,591,l),
(340,660,l),
(248,643,l),
(601,576,l),
(554,538,l),
(613,827,l),
(685,767,l),
(225,820,l),
(414,860,l),
(-62,626,l),
(94,795,l),
(26,15,l),
(-25,132,l),
(394,-58,l),
(180,-49,l),
(621,40,l),
(579,5,l),
(625,535,l),
(668,396,l),
(554,536,l),
(653,481,l),
(288,484,l),
(362,533,l),
(343,239,l),
(260,284,l),
(482,304,l),
(431,387,l),
(419,87,l)
);
}
);
width = 646;
},
{
associatedMasterId = m01;
layerId = "24DD031F-576D-4321-8B7F-9219D39F01C8";
name = "001";
shapes = (
{
closed = 1;
nodes = (
(476,180,l),
(308,150,l),
(441,152,l),
(216,199,l),
(243,132,l),
(253,637,l),
(219,583,l),
(342,652,l),
(255,623,l),
(598,543,l),
(490,459,l),
(690,821,l),
(684,736,l),
(590,789,l),
(646,821,l),
(548,710,l),
(588,723,l),
(238,842,l),
(428,856,l),
(-55,626,l),
(89,795,l),
(27,6,l),
(-22,126,l),
(377,-48,l),
(163,-42,l),
(619,34,l),
(579,17,l),
(625,535,l),
(668,396,l),
(554,536,l),
(653,481,l),
(288,484,l),
(362,533,l),
(343,239,l),
(260,284,l),
(482,304,l),
(431,387,l),
(419,87,l)
);
}
);
width = 664;
}
);
metricLeft = O;
unicode = 71;
}
{
glyphname = L;
kernLeft = E;
kernRight = L;
layers = (
{
anchors = (
{
name = bottom;
pos = (250,0);
},
{
name = top;
pos = (304,790);
}
);
layerId = m01;
shapes = (
{
closed = 1;
nodes = (
(206,571,l),
(329,640,l),
(238,619,l),
(399,596,l),
(352,585,l),
(421,871,l),
(491,790,l),
(215,798,l),
(404,861,l),
(-72,631,l),
(86,828,l),
(25,-45,l),
(1,0,l),
(557,-2,l),
(480,-52,l),
(499,242,l),
(585,196,l),
(188,168,l),
(230,131,l),
(264,682,l)
);
}
);
width = 514;
},
{
associatedMasterId = m01;
layerId = "234F8A9E-2B1B-4CB6-B2C8-849FF4ED0136";
name = "001";
shapes = (
{
closed = 1;
nodes = (
(192,580,l),
(315,649,l),
(224,628,l),
(446,583,l),
(399,560,l),
(458,849,l),
(530,779,l),
(201,807,l),
(390,861,l),
(-86,631,l),
(72,828,l),
(11,-45,l),
(-13,0,l),
(563,0,l),
(486,-52,l),
(505,242,l),
(591,197,l),
(174,168,l),
(216,131,l),
(230,350,l),
(235,446,l),
(250,682,l)
);
}
);
width = 516;
}
);
metricLeft = "=|J";
unicode = 76;
}
{
glyphname = M;
kernLeft = H;
kernRight = I;
layers = (
{
anchors = (
{
name = top;
pos = (458,790);
}
);
layerId = m01;
shapes = (
{
closed = 1;
nodes = (
(613,810,l),
(414,393,l),
(457,393,l),
(304,810,l),
(379,790,l),
(-36,793,l),
(38,842,l),
(19,548,l),
(-64,593,l),
(158,613,l),
(107,696,l),
(41,-83,l),
(16,0,l),
(296,0,l),
(249,-83,l),
(272,517,l),
(243,481,l),
(304,481,l),
(264,506,l),
(290,436,l),
(419,117,l),
(345,214,l),
(488,214,l),
(390,118,l),
(559,436,l),
(596,513,l),
(558,481,l),
(619,481,l),
(587,517,l),
(531,-83,l),
(487,0,l),
(767,0,l),
(738,-83,l),
(778,824,l),
(830,790,l),
(547,790,l)
);
}
);
width = 807;
}
);
metricLeft = H;
metricRight = I;
unicode = 77;
}
{
glyphname = O;
kernLeft = O;
kernRight = O;
layers = (
{
anchors = (
{
name = top;
pos = (356,790);
}
);
layerId = m01;
shapes = (
{
closed = 1;
nodes = (
(30,11,l),
(-99,154,l),
(483,-55,l),
(317,-64,l),
(775,155,l),
(602,-4,l),
(685,778,l),
(774,641,l),
(199,853,l),
(401,865,l),
(-85,615,l),
(63,794,l)
);
},
{
closed = 1;
nodes = (
(568,546,l),
(456,630,l),
(441,113,l),
(517,243,l),
(358,153,l),
(475,174,l),
(151,240,l),
(249,124,l),
(234,679,l),
(161,559,l),
(320,648,l),
(203,631,l)
);
}
);
width = 699;
}
);
unicode = 79;
}
{
glyphname = T;
kernLeft = T;
kernRight = T;
layers = (
{
anchors = (
{
name = bottom;
pos = (208,0);
},
{
name = top;
pos = (261,790);
}
);
layerId = m01;
shapes = (
{
closed = 1;
nodes = (
(160,633,l),
(96,-83,l),
(75,0,l),
(355,0,l),
(306,-83,l),
(354,749,l),
(359,691,l),
(174,590,l),
(192,650,l),
(222,551,l),
(251,615,l),
(179,579,l),
(80,518,l)
);
},
{
closed = 1;
nodes = (
(173,787,l),
(392,788,l),
(-57,789,l),
(17,831,l),
(-2,537,l),
(-85,590,l),
(464,606,l),
(72,601,l),
(601,596,l),
(518,551,l),
(537,845,l),
(623,795,l)
);
}
);
width = 532;
}
);
unicode = 84;
}
{
glyphname = V;
kernLeft = U;
kernRight = J;
layers = (
{
associatedMasterId = m01;
layerId = "BC74ADFD-C865-4D11-B97D-E3AB18C9CDDA";
name = "001";
shapes = (
{
closed = 1;
nodes = (
(-52,793,l),
(22,842,l),
(3,548,l),
(-80,593,l),
(182,613,l),
(114,641,l),
(240,0,l),
(517,0,l),
(772,851,l),
(780,790,l),
(472,790,l),
(555,878,l),
(356,116,l),
(396,116,l),
(272,831,l),
(363,790,l)
);
}
);
width = 697;
},
{
layerId = m01;
name = Regular;
shapes = (
{
closed = 1;
nodes = (
(606,37,l),
(692,853,l),
(700,790,l),
(414,790,l),
(479,853,l),
(429,93,l),
(479,159,l),
(156,302,l),
(233,123,l),
(329,826,l),
(372,705,l),
(258,845,l),
(324,790,l),
(-15,793,l),
(59,842,l),
(40,548,l),
(-43,590,l),
(223,623,l),
(142,681,l),
(-7,18,l),
(-71,224,l),
(454,-66,l),
(246,-137,l),
(698,199,l)
);
}
);
width = 697;
}
);
unicode = 86;
}
{
glyphname = X;
kernLeft = X;
kernRight = X;
layers = (
{
layerId = m01;
shapes = (
{
closed = 1;
nodes = (
(148,626,l),
(263,357,l),
(233,352,l),
(380,352,l),
(291,410,l),
(456,-32,l),
(418,0,l),
(810,-4,l),
(705,-67,l),
(730,312,l),
(847,197,l),
(555,176,l),
(606,164,l),
(481,451,l),
(499,471,l),
(383,471,l),
(454,400,l),
(298,822,l),
(338,790,l),
(-58,794,l),
(47,857,l),
(22,478,l),
(-95,593,l),
(202,614,l)
);
},
{
closed = 1;
nodes = (
(689,862,l),
(742,790,l),
(316,794,l),
(420,857,l),
(395,478,l),
(278,590,l),
(554,615,l),
(560,646,l),
(335,333,l),
(343,419,l),
(469,260,l),
(385,269,l),
(752,699,l),
(742,604,l)
);
},
{
closed = 1;
nodes = (
(50,-72,l),
(-3,0,l),
(430,-4,l),
(325,-67,l),
(350,312,l),
(454,198,l),
(153,173,l),
(155,146,l),
(393,470,l),
(386,384,l),
(260,542,l),
(342,537,l),
(-34,94,l),
(-3,186,l)
);
}
);
width = 744;
}
);
unicode = 88;
}
{
glyphname = bracketleft;
layers = (
{
layerId = m01;
shapes = (
{
closed = 1;
nodes = (
(141,-31,l),
(147,591,l),
(137,184,l),
(157,752,l),
(113,731,l),
(339,723,l),
(290,672,l),
(296,867,l),
(341,822,l),
(-13,820,l),
(52,894,l),
(45,184,l),
(55,591,l),
(34,-146,l),
(-11,-103,l),
(308,-105,l),
(284,-152,l),
(290,43,l),
(331,-7,l),
(95,-14,l)
);
}
);
width = 305;
}
);
metricLeft = "=35";
metricRight = "=10";
unicode = 91;
}
{
glyphname = b;
kernLeft = h;
kernRight = p;
layers = (
{
layerId = m01;
shapes = (
{
closed = 1;
nodes = (
(369,488,l),
(378,82,l),
(424,173,l),
(323,116,l),
(433,136,l),
(194,152,l),
(239,76,l),
(252,516,l),
(256,535,l),
(247,539,l),
(272,848,l),
(321,730,l),
(207,870,l),
(284,820,l),
(-50,823,l),
(25,872,l),
(6,578,l),
(-78,627,l),
(168,675,l),
(97,719,l),
(37,-63,l),
(6,67,l),
(452,-46,l),
(251,-66,l),
(665,125,l),
(523,-49,l),
(561,584,l),
(657,522,l),
(269,638,l),
(344,637,l),
(162,433,l),
(146,472,l),
(433,442,l)
);
}
);
width = 595;
}
);
metricLeft = h;
metricRight = p;
unicode = 98;
}
{
glyphname = c;
kernLeft = o;
kernRight = c;
layers = (
{
associatedMasterId = m01;
layerId = "48C4EC3B-BCB6-4C98-8A85-B1B6BC5D7C65";
name = "000";
shapes = (
{
closed = 1;
nodes = (
(500,125,l),
(146,191,l),
(208,130,l),
(205,477,l),
(160,414,l),
(261,471,l),
(180,455,l),
(448,363,l),
(359,311,l),
(524,610,l),
(519,540,l),
(442,584,l),
(489,610,l),
(408,519,l),
(440,529,l),
(166,653,l),
(328,662,l),
(-65,468,l),
(54,608,l),
(19,5,l),
(-76,120,l),
(378,-34,l),
(318,-57,l),
(483,242,l)
);
}
);
width = 472;
},
{
anchors = (
{
name = bottom;
pos = (233,0);
},
{
name = top;
pos = (283,600);
}
);
layerId = m01;
name = Regular;
shapes = (
{
closed = 1;
nodes = (
(427,386,l),
(496,672,l),
(535,589,l),
(192,622,l),
(358,658,l),
(-35,468,l),
(84,608,l),
(33,5,l),
(-8,104,l),
(322,-40,l),
(145,-10,l),
(489,0,l),
(436,-32,l),
(429,210,l),
(463,183,l),
(257,158,l),
(375,148,l),
(189,182,l),
(220,109,l),
(230,477,l),
(186,414,l),
(287,471,l),
(206,458,l),
(493,411,l)
);
}
);
width = 481;
},
{
associatedMasterId = m01;
layerId = "27657D54-00BB-4441-A83A-5FA0C09C80BB";
name = "001";
shapes = (
{
closed = 1;
nodes = (
(183,182,l),
(214,109,l),
(224,477,l),
(180,414,l),
(281,471,l),
(200,456,l),
(467,390,l),
(378,335,l),
(543,634,l),
(538,564,l),
(461,608,l),
(508,634,l),
(427,543,l),
(459,553,l),
(186,652,l),
(352,658,l),
(-41,468,l),
(78,608,l),
(27,5,l),
(-14,104,l),
(316,-40,l),
(139,-10,l),
(483,0,l),
(430,-32,l),
(423,210,l),
(457,183,l),
(251,158,l),
(369,148,l)
);
}
);
width = 496;
}
);
metricLeft = o;
unicode = 99;
}
{
glyphname = h;
kernLeft = h;
kernRight = n;
layers = (
{
layerId = m01;
shapes = (
{
closed = 1;
nodes = (
(332,0,l),
(661,-3,l),
(587,-52,l),
(606,242,l),
(689,189,l),
(423,151,l),
(494,109,l),
(624,571,l),
(675,483,l),
(263,642,l),
(338,641,l),
(156,433,l),
(140,472,l),
(451,413,l),
(394,466,l),
(327,-36,l),
(286,90,l),
(400,-50,l)
);
},
{
closed = 1;
nodes = (
(321,730,l),
(207,870,l),
(284,820,l),
(-50,823,l),
(25,872,l),
(6,578,l),
(-78,627,l),
(168,675,l),
(96,719,l),
(36,-63,l),
(-5,0,l),
(281,0,l),
(234,-63,l),
(250,537,l),
(243,539,l),
(272,848,l)
);
}
);
width = 645;
}
);
metricRight = n;
unicode = 104;
}
{
glyphname = k;
kernLeft = h;
kernRight = k;
layers = (
{
anchors = (
{
name = bottom;
pos = (296,0);
},
{
name = top;
pos = (177,820);
}
);
layerId = m01;
shapes = (
{
closed = 1;
nodes = (
(321,730,l),
(207,870,l),
(284,820,l),
(-50,823,l),
(25,872,l),
(6,578,l),
(-78,627,l),
(168,675,l),
(97,719,l),
(37,-63,l),
(-5,0,l),
(281,0,l),
(234,-63,l),
(250,537,l),
(243,539,l),
(272,848,l)
);
},
{
closed = 1;
nodes = (
(184,230,l),
(189,287,l),
(233,139,l),
(201,169,l),
(631,421,l),
(515,284,l),
(589,553,l),
(685,464,l),
(262,643,l),
(334,642,l),
(154,425,l),
(139,478,l),
(461,408,l),
(386,447,l),
(379,302,l),
(511,441,l)
);
},
{
closed = 1;
nodes = (
(637,-3,l),
(563,-52,l),
(582,242,l),
(665,184,l),
(443,164,l),
(517,142,l),
(418,324,l),
(286,266,l),
(386,-53,l),
(352,0,l)
);
}
);
width = 600;
}
);
metricLeft = h;
unicode = 107;
}
{
glyphname = m;
kernLeft = n;
kernRight = n;
layers = (
{
anchors = (
{
name = top;
pos = (498,600);
}
);
layerId = m01;
shapes = (
{
closed = 1;
nodes = (
(981,-3,l),
(907,-52,l),
(926,242,l),
(1009,189,l),
(743,151,l),
(814,109,l),
(944,571,l),
(995,482,l),
(583,641,l),
(655,640,l),
(475,423,l),
(460,471,l),
(771,412,l),
(714,466,l),
(650,-16,l),
(622,59,l),
(704,-40,l),
(635,0,l)
);
},
{
closed = 1;
nodes = (
(281,605,l),
(316,508,l),
(52,640,l),
(117,664,l),
(-11,432,l),
(-44,471,l),
(142,420,l),
(105,471,l),
(54,-63,l),
(12,0,l),
(298,0,l),
(251,-63,l)
);
},
{
closed = 1;
nodes = (
(410,471,l),
(356,-63,l),
(315,0,l),
(601,0,l),
(554,-63,l),
(584,605,l),
(633,506,l),
(283,641,l),
(355,634,l),
(175,417,l),
(160,471,l),
(446,416,l)
);
}
);
width = 964;
}
);
metricLeft = n;
metricRight = n;
unicode = 109;
}
{
glyphname = p;
kernLeft = n;
kernRight = p;
layers = (
{
layerId = m01;
shapes = (
{
closed = 1;
nodes = (
(105,498,l),
(39,-323,l),
(-1,-220,l),
(285,-220,l),
(240,-323,l),
(239,69,l),
(202,5,l),
(287,53,l),
(250,100,l),
(262,575,l),
(316,508,l),
(52,640,l),
(117,664,l),
(-11,432,l),
(-44,471,l),
(142,420,l)
);
},
{
closed = 1;
nodes = (
(149,64,l),
(467,-55,l),
(238,-81,l),
(672,119,l),
(539,-49,l),
(577,584,l),
(673,522,l),
(272,637,l),
(347,636,l),
(165,433,l),
(149,472,l),
(449,442,l),
(385,488,l),
(394,82,l),
(433,174,l),
(350,109,l),
(449,129,l),
(197,162,l)
);
}
);
width = 611;
},
{
associatedMasterId = m01;
layerId = "D1D023C5-CA9D-4D4E-8E4E-B26A80BE4A5C";
name = "001";
shapes = (
{
closed = 1;
nodes = (
(102,498,l),
(38,-323,l),
(-4,-260,l),
(282,-260,l),
(235,-323,l),
(236,69,l),
(199,1,l),
(284,49,l),
(247,100,l),
(259,575,l),
(313,508,l),
(49,640,l),
(114,664,l),
(-14,432,l),
(-47,471,l),
(139,420,l)
);
},
{
closed = 1;
nodes = (
(146,64,l),
(447,-55,l),
(222,-82,l),
(656,118,l),
(523,-49,l),
(561,584,l),
(657,522,l),
(269,638,l),
(344,637,l),
(162,433,l),
(146,472,l),
(433,442,l),
(369,488,l),
(378,82,l),
(417,174,l),
(334,109,l),
(433,129,l),
(194,162,l)
);
}
);
width = 583;
}
);
metricLeft = n;
unicode = 112;
}
{
glyphname = q;
kernLeft = o;
kernRight = g;
layers = (
{
layerId = m01;
shapes = (
{
closed = 1;
nodes = (
(269,-220,l),
(555,-220,l),
(509,-316,l),
(522,89,l),
(559,682,l),
(583,539,l),
(137,647,l),
(343,660,l),
(-71,468,l),
(71,648,l),
(38,15,l),
(-58,77,l),
(330,-39,l),
(255,-38,l),
(437,166,l),
(453,127,l),
(166,157,l),
(230,111,l),
(216,517,l),
(170,420,l),
(271,477,l),
(161,461,l),
(405,436,l),
(359,543,l),
(346,78,l),
(341,64,l),
(352,60,l),
(309,-324,l)
);
}
);
width = 586;
}
);
metricLeft = o;
metricRight = j;
unicode = 113;
}
{
glyphname = r;
kernLeft = n;
kernRight = r;
layers = (
{
anchors = (
{
name = bottom;
pos = (154,0);
},
{
name = top;
pos = (266,600);
}
);
layerId = m01;
shapes = (
{
closed = 1;
nodes = (
(496,602,l),
(260,618,l),
(351,647,l),
(173,426,l),
(167,459,l),
(440,422,l),
(385,353,l),
(454,639,l)
);
},
{
closed = 1;
nodes = (
(281,605,l),
(316,508,l),
(52,640,l),
(117,664,l),
(-11,432,l),
(-44,471,l),
(142,420,l),
(105,471,l),
(54,-63,l),
(12,0,l),
(298,0,l),
(251,-63,l)
);
}
);
width = 434;
},
{
associatedMasterId = m01;
layerId = "5342D109-AAB8-412B-BCC3-77E816DB00C4";
name = "000";
shapes = (
{
closed = 1;
nodes = (
(287,650,l),
(359,640,l),
(179,423,l),
(231,518,l),
(390,364,l),
(526,510,l)
);
},
{
closed = 1;
nodes = (
(288,605,l),
(323,508,l),
(59,640,l),
(124,664,l),
(-4,432,l),
(-37,471,l),
(149,420,l),
(112,471,l),
(61,-63,l),
(19,0,l),
(305,0,l),
(258,-63,l)
);
}
);
width = 531;
},
{
associatedMasterId = m01;
layerId = "9E27B6F5-54FF-4835-89D5-8C5EBDA5B5A2";
name = "001";
shapes = (
{
closed = 1;
nodes = (
(164,476,l),
(410,402,l),
(339,331,l),
(504,630,l),
(499,560,l),
(422,604,l),
(469,630,l),
(388,539,l),
(440,540,l),
(278,654,l),
(348,647,l),
(170,426,l)
);
},
{
closed = 1;
nodes = (
(278,605,l),
(313,508,l),
(49,640,l),
(114,664,l),
(-14,432,l),
(-47,471,l),
(139,420,l),
(102,471,l),
(51,-63,l),
(9,0,l),
(295,0,l),
(248,-63,l)
);
}
);
width = 453;
}
);
metricLeft = n;
unicode = 114;
}
{
glyphname = u;
kernLeft = u;
kernRight = u;
layers = (
{
anchors = (
{
name = ogonek;
pos = (543,0);
},
{
name = top;
pos = (364,600);
}
);
layerId = m01;
shapes = (
{
closed = 1;
nodes = (
(312,600,l),
(-17,603,l),
(57,652,l),
(38,358,l),
(-45,411,l),
(221,449,l),
(150,491,l),
(20,29,l),
(-31,118,l),
(381,-41,l),
(309,-40,l),
(489,177,l),
(504,129,l),
(193,188,l),
(250,134,l),
(317,636,l),
(363,515,l),
(249,655,l)
);
},
{
closed = 1;
nodes = (
(380,-5,l),
(345,92,l),
(609,-40,l),
(544,-64,l),
(672,168,l),
(705,129,l),
(519,180,l),
(556,129,l),
(607,663,l),
(649,600,l),
(363,600,l),
(410,663,l)
);
}
);
width = 661;
},
{
associatedMasterId = m01;
backgroundImage = {
imagePath = "../../../fonts/_omat/2025-04-26 18.57.31.jpg";
locked = 1;
pos = (-1384,-3603);
scale = (4,4);
};
layerId = "C14BB438-EEB1-468F-93D8-1A769069F086";
name = "001";
shapes = (
{
closed = 1;
nodes = (
(303,605,l),
(-54,589,l),
(23,635,l),
(-5,341,l),
(-82,384,l),
(186,454,l),
(149,493,l),
(-30,29,l),
(-79,120,l),
(347,-25,l),
(272,-24,l),
(423,158,l),
(146,199,l),
(195,134,l),
(302,592,l),
(344,518,l),
(230,658,l)
);
},
{
closed = 1;
nodes = (
(343,-5,l),
(308,106,l),
(572,-24,l),
(507,-48,l),
(635,184,l),
(668,147,l),
(485,200,l),
(518,129,l),
(569,663,l),
(612,599,l),
(326,603,l),
(371,663,l)
);
}
);
width = 616;
},
{
associatedMasterId = m01;
backgroundImage = {
imagePath = "../../../fonts/_omat/2025-04-26 18.57.31.jpg";
locked = 1;
pos = (-1373,-3603);
scale = (4,4);
};
layerId = "B3321F1C-622B-43B6-85CB-FAB3326512C9";
name = "002";
shapes = (
{
closed = 1;
nodes = (
(322,600,l),
(-43,604,l),
(31,652,l),
(12,358,l),
(-71,401,l),
(197,452,l),
(160,493,l),
(-16,29,l),
(-67,134,l),
(355,-26,l),
(284,-24,l),
(463,193,l),
(478,145,l),
(157,204,l),
(214,134,l),
(321,609,l),
(368,512,l),
(254,652,l)
);
},
{
closed = 1;
nodes = (
(354,-5,l),
(319,108,l),
(583,-25,l),
(519,-48,l),
(646,184,l),
(679,145,l),
(493,196,l),
(530,129,l),
(581,663,l),
(623,600,l),
(337,600,l),
(384,663,l)
);
}
);
width = 632;
}
);
metricLeft = "=|n";
metricRight = "=|n";
unicode = 117;
}
{
glyphname = x;
kernLeft = x;
kernRight = x;
layers = (
{
layerId = m01;
shapes = (
{
closed = 1;
nodes = (
(128,473,l),
(218,264,l),
(164,283,l),
(304,283,l),
(235,318,l),
(368,-25,l),
(339,0,l),
(657,-3,l),
(576,-52,l),
(595,242,l),
(686,183,l),
(445,159,l),
(489,127,l),
(391,352,l),
(446,339,l),
(306,339,l),
(375,297,l),
(249,625,l),
(280,600,l),
(-29,603,l),
(52,652,l),
(33,358,l),
(-58,416,l),
(174,440,l)
);
},
{
closed = 1;
nodes = (
(571,656,l),
(612,600,l),
(281,603,l),
(362,652,l),
(343,358,l),
(252,426,l),
(466,447,l),
(471,488,l),
(296,245,l),
(302,312,l),
(400,189,l),
(335,202,l),
(620,536,l),
(612,456,l)
);
},
{
closed = 1;
nodes = (
(38,-56,l),
(-3,0,l),
(333,-3,l),
(252,-52,l),
(271,242,l),
(352,173,l),
(118,152,l),
(120,113,l),
(305,365,l),
(299,298,l),
(201,421,l),
(265,410,l),
(-27,66,l),
(-3,144,l)
);
}
);
width = 612;
},
{
associatedMasterId = m01;
layerId = "9A54BEC3-BDB8-465E-827C-83271CC83D1D";
name = "001";
shapes = (
{
closed = 1;
nodes = (
(443,125,l),
(245,643,l),
(316,599,l),
(-17,603,l),
(64,652,l),
(45,358,l),
(-46,423,l),
(210,453,l),
(134,499,l),
(296,33,l),
(243,79,l),
(499,-39,l),
(435,-63,l),
(563,169,l),
(588,132,l),
(413,163,l)
);
},
{
closed = 1;
nodes = (
(369,302,l),
(342,308,l),
(421,462,l),
(370,447,l),
(511,405,l),
(440,331,l),
(605,630,l),
(600,560,l),
(523,604,l),
(570,630,l),
(489,539,l),
(541,540,l),
(395,643,l),
(475,619,l),
(378,611,l),
(420,650,l),
(292,335,l),
(286,412,l)
);
},
{
closed = 1;
nodes = (
(210,374,l),
(237,368,l),
(133,147,l),
(184,162,l),
(28,173,l),
(82,260,l),
(-17,-67,l),
(-27,3,l),
(58,-24,l),
(17,-59,l),
(77,46,l),
(27,35,l),
(159,-34,l),
(81,-20,l),
(178,-12,l),
(136,-41,l),
(289,341,l),
(293,264,l)
);
}
);
width = 572;
},
{
associatedMasterId = m01;
layerId = "BB4A8736-9253-4F37-AB7A-AE8CFC94C4E6";
name = "002";
shapes = (
{
closed = 1;
nodes = (
(130,473,l),
(199,312,l),
(221,276,l),
(338,-25,l),
(305,0,l),
(623,-3,l),
(542,-52,l),
(561,242,l),
(652,183,l),
(411,159,l),
(459,127,l),
(383,302,l),
(361,339,l),
(251,625,l),
(286,600,l),
(-23,603,l),
(58,652,l),
(39,358,l),
(-52,416,l),
(180,440,l)
);
},
{
closed = 1;
nodes = (
(571,656,l),
(612,600,l),
(281,603,l),
(362,652,l),
(343,358,l),
(252,426,l),
(466,447,l),
(471,488,l),
(269,245,l),
(275,312,l),
(368,189,l),
(300,202,l),
(617,536,l),
(612,456,l)
);
},
{
closed = 1;
nodes = (
(21,-56,l),
(-20,0,l),
(309,-3,l),
(228,-52,l),
(247,242,l),
(328,173,l),
(101,152,l),
(103,113,l),
(308,355,l),
(302,288,l),
(209,411,l),
(276,400,l),
(-41,66,l),
(-20,144,l)
);
}
);
width = 603;
}
);
unicode = 120;
}
{
glyphname = y;
kernLeft = u;
kernRight = y;
layers = (
{
associatedMasterId = m01;
layerId = "610A9996-8B7E-4636-BB88-EBC64C583334";
name = "000";
shapes = (
{
closed = 1;
nodes = (
(294,600,l),
(-35,603,l),
(39,652,l),
(20,358,l),
(-63,411,l),
(203,449,l),
(132,491,l),
(2,29,l),
(-49,118,l),
(363,-41,l),
(291,-40,l),
(471,177,l),
(486,129,l),
(175,188,l),
(232,134,l),
(299,636,l),
(345,515,l),
(231,655,l)
);
},
{
closed = 1;
nodes = (
(-55,-4,l),
(54,22,l),
(28,-273,l),
(-41,-217,l),
(491,-302,l),
(272,-342,l),
(555,-194,l),
(530,-319,l),
(538,129,l),
(589,663,l),
(631,600,l),
(345,600,l),
(392,663,l),
(366,59,l),
(375,54,l),
(359,-143,l),
(387,-123,l)
);
}
);
width = 600;
},
{
associatedMasterId = m01;
layerId = "34FCEA29-8373-4B58-9E45-CA21AFC96CC8";
name = "001";
shapes = (
{
closed = 1;
nodes = (
(511,-305,l),
(352,-303,l),
(576,-161,l),
(544,-275,l),
(547,89,l),
(588,663,l),
(630,600,l),
(344,600,l),
(391,663,l),
(376,81,l),
(368,64,l),
(417,48,l),
(374,103,l),
(396,-179,l),
(430,-105,l),
(349,-160,l),
(428,-150,l),
(114,-56,l),
(183,-110,l),
(167,-14,l),
(118,-103,l),
(484,133,l),
(501,125,l),
(174,187,l),
(231,134,l),
(298,636,l),
(339,510,l),
(225,650,l),
(293,600,l),
(-36,603,l),
(38,652,l),
(19,358,l),
(-64,411,l),
(202,449,l),
(131,491,l),
(5,29,l),
(-50,107,l),
(236,10,l),
(192,68,l),
(207,-30,l),
(224,41,l),
(-36,-143,l),
(28,-38,l),
(24,-251,l),
(-19,-177,l)
);
}
);
width = 606;
},
{
associatedMasterId = m01;
layerId = "EFE3718B-094A-4A8A-8F8F-A9A6F851628D";
name = "002";
shapes = (
{
closed = 1;
nodes = (
(508,-309,l),
(349,-307,l),
(573,-161,l),
(541,-275,l),
(546,89,l),
(597,663,l),
(639,600,l),
(353,600,l),
(400,663,l),
(385,81,l),
(365,64,l),
(414,48,l),
(371,103,l),
(393,-179,l),
(427,-105,l),
(346,-160,l),
(437,-150,l),
(123,-56,l),
(180,-110,l),
(164,-14,l),
(115,-103,l),
(481,133,l),
(510,125,l),
(183,187,l),
(240,134,l),
(307,636,l),
(348,510,l),
(234,650,l),
(302,600,l),
(-27,603,l),
(47,652,l),
(28,358,l),
(-55,411,l),
(211,449,l),
(140,491,l),
(14,29,l),
(-41,107,l),
(245,10,l),
(189,68,l),
(204,-30,l),
(221,41,l),
(-39,-143,l),
(25,-38,l),
(21,-251,l),
(-22,-177,l)
);
}
);
width = 615;
},
{
associatedMasterId = m01;
layerId = "030EBD21-E069-45FF-B0B6-2EE3EAFD2CD7";
name = "003";
shapes = (
{
closed = 1;
nodes = (
(375,67,l),
(424,51,l),
(390,103,l),
(373,-179,l),
(403,-48,l),
(326,-101,l),
(398,-77,l),
(-43,-39,l),
(64,14,l),
(40,-280,l),
(-15,-231,l),
(527,-220,l),
(358,-249,l),
(561,-101,l),
(517,-275,l),
(597,663,l),
(639,600,l),
(353,600,l),
(400,663,l),
(384,119,l)
);
},
{
closed = 1;
nodes = (
(301,636,l),
(348,517,l),
(234,657,l),
(296,600,l),
(-27,603,l),
(47,652,l),
(28,358,l),
(-55,411,l),
(205,447,l),
(134,491,l),
(17,29,l),
(-8,116,l),
(413,-61,l),
(267,-71,l),
(459,148,l),
(520,115,l),
(216,196,l),
(247,134,l)
);
}
);
width = 614;
},
{
anchors = (
{
name = top;
pos = (362,600);
}
);
layerId = m01;
name = Regular;
shapes = (
{
closed = 1;
nodes = (
(507,-260,l),
(348,-258,l),
(572,-112,l),
(540,-226,l),
(555,89,l),
(606,663,l),
(648,600,l),
(362,600,l),
(409,663,l),
(394,81,l),
(374,64,l),
(423,48,l),
(380,103,l),
(392,-130,l),
(426,-56,l),
(345,-111,l),
(436,-101,l),
(132,-56,l),
(205,-110,l),
(189,-14,l),
(124,-103,l),
(490,133,l),
(519,125,l),
(192,187,l),
(249,134,l),
(316,636,l),
(357,510,l),
(243,650,l),
(311,600,l),
(-18,603,l),
(56,652,l),
(37,358,l),
(-46,411,l),
(220,449,l),
(149,491,l),
(23,29,l),
(-32,107,l),
(254,10,l),
(230,41,l),
(-30,-143,l),
(54,-38,l),
(50,-251,l),
(-13,-177,l)
);
}
);
width = 635;
}
);
metricLeft = u;
metricRight = j;
unicode = 121;
}
{
glyphname = z;
kernLeft = z;
kernRight = z;
layers = (
{
anchors = (
{
name = top;
pos = (258,600);
}
);
layerId = m01;
shapes = (
{
closed = 1;
nodes = (
(-80,116,l),
(108,-56,l),
(-14,0,l),
(502,-3,l),
(433,-52,l),
(452,242,l),
(533,189,l),
(156,141,l),
(284,108,l),
(193,224,l),
(208,89,l),
(272,203,l),
(495,628,l),
(515,485,l),
(347,655,l),
(469,600,l),
(-3,603,l),
(66,652,l),
(47,358,l),
(-34,412,l),
(282,468,l),
(212,501,l),
(291,411,l),
(280,509,l),
(230,429,l),
(-55,-32,l)
);
}
);
width = 467;
}
);
unicode = 122;
}
{
glyphname = bar;
layers = (
{
layerId = m01;
shapes = (
{
closed = 1;
nodes = (
(49,-225,l),
(-14,-175,l),
(220,-175,l),
(158,-225,l),
(164,591,l),
(154,184,l),
(179,894,l),
(239,845,l),
(4,845,l),
(69,894,l),
(62,184,l),
(72,591,l)
);
}
);
width = 227;
}
);
metricLeft = "=50";
metricRight = "=50";
unicode = 124;
}
{
glyphname = brokenbar;
layers = (
{
layerId = m01;
shapes = (
{
closed = 1;
nodes = (
(177,375,l),
(181,668,l),
(195,918,l),
(248,834,l),
(38,834,l),
(80,926,l),
(76,622,l),
(63,363,l),
(28,466,l),
(239,466,l)
);
},
{
closed = 1;
nodes = (
(162,-170,l),
(166,153,l),
(176,397,l),
(233,313,l),
(23,313,l),
(67,405,l),
(60,107,l),
(45,-182,l),
(13,-79,l),
(224,-79,l)
);
}
);
width = 240;
}
);
metricLeft = bar;
metricRight = bar;
unicode = 166;
}
{
glyphname = section;
layers = (
{
layerId = m01;
shapes = (
{
closed = 1;
nodes = (
(206,570,l),
(253,448,l),
(267,662,l),
(219,587,l),
(310,634,l),
(273,629,l),
(570,589,l),
(531,533,l),
(583,824,l),
(603,783,l),
(277,797,l),
(310,802,l),
(64,676,l),
(104,769,l),
(56,367,l),
(20,484,l),
(301,366,l),
(166,395,l),
(462,414,l),
(367,423,l),
(438,364,l),
(425,426,l),
(413,210,l),
(440,296,l),
(332,224,l),
(375,169,l),
(614,301,l),
(578,208,l),
(610,522,l),
(629,426,l),
(431,549,l),
(607,543,l),
(203,511,l),
(326,489,l)
);
},
{
closed = 1;
nodes = (
(446,70,l),
(399,192,l),
(385,-22,l),
(433,53,l),
(342,6,l),
(379,11,l),
(82,51,l),
(121,107,l),
(69,-184,l),
(49,-143,l),
(375,-157,l),
(342,-162,l),
(588,-36,l),
(548,-129,l),
(596,273,l),
(632,156,l),
(351,274,l),
(486,245,l),
(190,226,l),
(285,217,l),
(214,276,l),
(227,214,l),
(239,430,l),
(212,344,l),
(320,416,l),
(277,471,l),
(38,339,l),
(74,432,l),
(42,118,l),
(23,214,l),
(221,91,l),
(45,97,l),
(449,129,l),
(326,151,l)
);
}
);
width = 652;
}
);
metricLeft = "=50";
metricRight = "=50";
unicode = 167;
}
{
glyphname = copyright;
layers = (
{
layerId = m01;
shapes = (
{
closed = 1;
nodes = (
(1000,649,l),
(340,857,l),
(538,860,l),
(-8,625,l),
(124,785,l),
(87,-29,l),
(-19,112,l),
(641,-97,l),
(444,-104,l),
(990,131,l),
(857,-25,l),
(894,790,l)
);
},
{
closed = 1;
nodes = (
(771,655,l),
(769,95,l),
(797,154,l),
(499,21,l),
(591,42,l),
(162,147,l),
(210,106,l),
(212,665,l),
(185,602,l),
(483,735,l),
(391,718,l),
(819,614,l)
);
},
{
closed = 1;
nodes = (
(635,417,l),
(694,664,l),
(728,582,l),
(436,633,l),
(595,675,l),
(227,531,l),
(322,654,l),
(311,123,l),
(294,194,l),
(569,119,l),
(434,116,l),
(711,179,l),
(668,129,l),
(631,334,l),
(668,321,l),
(470,262,l),
(541,266,l),
(425,302,l),
(461,214,l),
(469,541,l),
(427,465,l),
(515,514,l),
(431,503,l),
(692,433,l)
);
}
);
width = 961;
},
{
associatedMasterId = m01;
layerId = "FF2DF264-637F-45A7-BD81-91E9957A88CC";
name = "000";
shapes = (
{
closed = 1;
nodes = (
(732,651,l),
(824,506,l),
(233,721,l),
(404,732,l),
(-88,501,l),
(44,665,l),
(10,-51,l),
(-107,94,l),
(474,-121,l),
(313,-132,l),
(805,99,l),
(672,-38,l)
);
},
{
closed = 1;
nodes = (
(657,111,l),
(322,-46,l),
(451,-37,l),
(40,115,l),
(82,58,l),
(106,560,l),
(64,491,l),
(395,646,l),
(258,637,l),
(688,481,l),
(656,543,l),
(609,30,l)
);
},
{
closed = 1;
nodes = (
(470,342,l),
(525,571,l),
(556,504,l),
(282,561,l),
(414,590,l),
(100,438,l),
(185,550,l),
(144,67,l),
(122,146,l),
(456,21,l),
(314,45,l),
(539,83,l),
(497,58,l),
(491,251,l),
(518,230,l),
(354,180,l),
(448,172,l),
(279,209,l),
(294,150,l),
(302,445,l),
(277,394,l),
(358,440,l),
(293,430,l),
(522,362,l)
);
}
);
width = 738;
}
);
unicode = 169;
}
{
glyphname = registered;
layers = (
{
layerId = m01;
shapes = (
{
closed = 1;
nodes = (
(25,528,l),
(-32,600,l),
(265,488,l),
(193,484,l),
(437,592,l),
(371,522,l),
(396,881,l),
(437,809,l),
(147,923,l),
(239,929,l),
(-32,807,l),
(28,885,l)
);
},
{
closed = 1;
nodes = (
(50,778,l),
(222,856,l),
(149,842,l),
(355,782,l),
(321,824,l),
(317,584,l),
(353,617,l),
(195,556,l),
(263,568,l),
(54,626,l),
(83,589,l),
(97,819,l)
);
},
{
closed = 1;
nodes = (
(182,689,l),
(182,696,l),
(190,668,l),
(183,672,l),
(270,723,l),
(262,708,l),
(275,770,l),
(289,759,l),
(194,796,l),
(214,798,l),
(173,749,l),
(170,753,l),
(245,738,l),
(227,756,l),
(225,707,l),
(249,732,l)
);
},
{
closed = 1;
nodes = (
(139,630,l),
(196,630,l),
(189,623,l),
(194,777,l),
(202,769,l),
(152,795,l),
(159,796,l),
(135,751,l),
(133,753,l),
(170,743,l),
(153,763,l),
(142,623,l)
);
},
{
closed = 1;
nodes = (
(280,630,l),
(273,620,l),
(276,677,l),
(285,668,l),
(237,665,l),
(263,658,l),
(233,709,l),
(200,692,l),
(226,620,l),
(211,630,l)
);
}
);
width = 412;
}
);
metricLeft = "=25";
metricRight = "=20";
unicode = 174;
}
{
glyphname = paragraph;
layers = (
{
layerId = m01;
shapes = (
{
closed = 1;
nodes = (
(417,-50,l),
(354,0,l),
(588,0,l),
(519,-50,l),
(525,766,l),
(515,129,l),
(540,839,l),
(607,790,l),
(372,790,l),
(437,839,l),
(430,129,l),
(440,766,l)
);
},
{
closed = 1;
nodes = (
(272,407,l),
(258,-50,l),
(195,0,l),
(429,0,l),
(360,-50,l),
(366,766,l),
(356,129,l),
(381,839,l),
(385,790,l),
(319,790,l),
(59,800,l),
(190,812,l),
(-5,689,l),
(39,776,l),
(22,402,l),
(-19,498,l),
(213,353,l),
(131,376,l),
(291,387,l)
);
}
);
width = 588;
}
);
metricLeft = "=25";
metricRight = "=50";
unicode = 182;
}
{
glyphname = ae;
kernLeft = a;
kernRight = e;
layers = (
{
layerId = m01;
shapes = (
{
closed = 1;
nodes = (
(376,398,l),
(358,460,l),
(-33,231,l),
(70,318,l),
(-4,49,l),
(-96,138,l),
(326,-39,l),
(254,-38,l),
(514,147,l),
(529,95,l),
(128,184,l),
(210,155,l),
(220,352,l),
(87,211,l)
);
},
{
closed = 1;
nodes = (
(547,508,l),
(334,642,l),
(508,600,l),
(9,603,l),
(83,652,l),
(64,358,l),
(-19,411,l),
(379,467,l),
(311,493,l),
(364,430,l),
(346,500,l),
(346,441,l),
(337,431,l),
(319,69,l),
(275,97,l),
(590,-40,l),
(414,-10,l),
(798,0,l),
(745,-32,l),
(738,210,l),
(772,183,l),
(553,157,l),
(645,148,l),
(459,190,l),
(490,109,l),
(500,477,l),
(456,415,l),
(557,472,l),
(475,455,l),
(676,412,l),
(594,454,l),
(584,257,l),
(717,390,l),
(416,223,l),
(430,160,l),
(836,362,l),
(734,291,l),
(808,560,l),
(900,468,l),
(488,647,l),
(625,656,l),
(373,535,l)
);
}
);
width = 805;
},
{
associatedMasterId = m01;
layerId = "593B542E-64EF-4FA3-B2C3-EA8C4F177EF5";
name = "000";
shapes = (
{
closed = 1;
nodes = (
(362,398,l),
(344,460,l),
(-47,231,l),
(56,318,l),
(-18,49,l),
(-110,138,l),
(312,-39,l),
(240,-38,l),
(500,147,l),
(515,99,l),
(114,208,l),
(196,155,l),
(206,352,l),
(73,211,l)
);
},
{
closed = 1;
nodes = (
(687,326,l),
(712,396,l),
(478,266,l),
(481,197,l),
(816,365,l),
(726,265,l),
(825,625,l),
(875,496,l),
(452,669,l),
(658,662,l),
(401,535,l),
(533,508,l),
(320,642,l),
(494,600,l),
(-5,603,l),
(69,652,l),
(50,358,l),
(-33,411,l),
(365,467,l),
(297,493,l),
(350,430,l),
(332,500,l),
(332,441,l),
(323,431,l),
(305,69,l),
(283,101,l),
(708,-34,l),
(648,-57,l),
(813,242,l),
(830,125,l),
(446,191,l),
(477,129,l),
(495,477,l),
(428,419,l),
(529,476,l),
(466,471,l),
(710,399,l),
(704,489,l)
);
}
);
width = 803;
},
{
associatedMasterId = m01;
layerId = "221350F6-5053-4249-ACBE-7E86FB336FB6";
name = "001";
shapes = (
{
closed = 1;
nodes = (
(392,398,l),
(374,460,l),
(-17,231,l),
(86,318,l),
(12,49,l),
(-80,138,l),
(342,-39,l),
(270,-38,l),
(530,147,l),
(545,99,l),
(144,208,l),
(226,155,l),
(236,352,l),
(103,211,l)
);
},
{
closed = 1;
nodes = (
(563,508,l),
(350,642,l),
(524,600,l),
(25,603,l),
(99,652,l),
(80,358,l),
(-3,411,l),
(395,467,l),
(327,493,l),
(380,430,l),
(362,500,l),
(362,441,l),
(353,431,l),
(335,69,l),
(294,96,l),
(606,-40,l),
(430,-10,l),
(819,0,l),
(766,-32,l),
(759,210,l),
(793,183,l),
(463,151,l),
(585,109,l),
(451,195,l),
(506,109,l),
(516,477,l),
(472,415,l),
(573,472,l),
(491,451,l),
(692,398,l),
(610,454,l),
(600,257,l),
(733,390,l),
(432,223,l),
(446,160,l),
(852,362,l),
(750,291,l),
(824,560,l),
(916,468,l),
(504,647,l),
(641,656,l),
(401,541,l)
);
}
);
width = 837;
}
);
metricLeft = a;
metricRight = e;
unicode = 230;
}
{
glyphname = oslash;
kernLeft = o;
kernRight = o;
layers = (
{
layerId = m01;
shapes = (
{
closed = 1;
nodes = (
(35,5,l),
(-67,133,l),
(392,-46,l),
(261,-53,l),
(632,118,l),
(505,-7,l),
(572,596,l),
(643,472,l),
(174,653,l),
(337,662,l),
(-56,468,l),
(63,608,l)
);
},
{
closed = 1;
nodes = (
(451,393,l),
(372,446,l),
(362,123,l),
(412,183,l),
(311,126,l),
(393,144,l),
(155,194,l),
(224,130,l),
(214,477,l),
(168,414,l),
(269,471,l),
(188,455,l)
);
},
{
closed = 1;
nodes = (
(441,533,l),
(357,434,l),
(236,261,l),
(227,244,l),
(207,246,l),
(103,91,l),
(6,-33,l),
(1,19,l),
(140,-38,l),
(59,-76,l),
(162,69,l),
(237,157,l),
(353,323,l),
(364,339,l),
(384,337,l),
(500,511,l),
(596,633,l),
(600,578,l),
(463,641,l),
(543,676,l)
);
}
);
width = 601;
}
);
unicode = 248;
}
{
glyphname = Aogonek;
kernLeft = A;
kernRight = A;
layers = (
{
anchors = (
{
name = ogonek;
pos = (606,0);
},
{
name = top;
pos = (372,790);
}
);
layerId = m01;
shapes = (
{
closed = 1;
nodes = (
(10,-44,l),
(-27,0,l),
(269,0,l),
(221,-44,l),
(308,684,l),
(344,695,l),
(159,594,l),
(185,659,l),
(215,560,l),
(243,624,l),
(171,588,l),
(72,527,l),
(130,614,l)
);
},
{
closed = 1;
nodes = (
(188,248,l),
(520,332,l),
(523,443,l),
(187,357,l)
);
},
{
closed = 1;
nodes = (
(660,-52,l),
(679,242,l),
(762,197,l),
(540,177,l),
(591,94,l),
(664,862,l),
(702,632,l),
(424,844,l),
(625,790,l),
(-34,793,l),
(40,842,l),
(21,548,l),
(-62,588,l),
(488,628,l),
(373,661,l),
(456,591,l),
(437,685,l),
(397,-54,l),
(354,85,l),
(468,-55,l),
(369,0,l),
(588,-2,l),
(538,23,l),
(568,-38,l),
(581,11,l),
(491,-40,l),
(500,15,l),
(500,-198,l),
(486,-153,l),
(600,-221,l),
(558,-227,l),
(701,-189,l),
(688,-205,l),
(654,-105,l),
(680,-111,l),
(571,-148,l),
(616,-144,l),
(553,-107,l),
(570,-137,l),
(575,6,l),
(557,-75,l),
(683,13,l)
);
}
);
width = 698;
}
);
unicode = 260;
}
{
glyphname = Dcroat;
layers = (
{
anchors = (
{
name = top;
pos = (368,790);
}
);
layerId = m01;
shapes = (
{
closed = 1;
nodes = (
(181,659,l),
(211,560,l),
(240,624,l),
(168,588,l),
(69,527,l),
(84,575,l),
(78,432,l),
(73,361,l),
(37,-43,l),
(12,52,l),
(478,-41,l),
(331,-63,l),
(751,173,l),
(593,-52,l),
(681,862,l),
(711,610,l),
(433,822,l),
(642,790,l),
(-40,793,l),
(34,842,l),
(15,548,l),
(-68,588,l),
(505,630,l),
(376,649,l),
(477,565,l),
(454,685,l),
(434,79,l),
(467,201,l),
(382,138,l),
(525,159,l),
(215,168,l),
(258,116,l),
(281,765,l)
);
},
{
closed = 1;
nodes = (
(-54,347,l),
(252,354,l),
(442,349,l),
(359,308,l),
(373,495,l),
(450,444,l),
(206,441,l),
(-66,447,l),
(33,495,l),
(19,284,l)
);
}
);
width = 685;
}
);
unicode = 272;
}
{
glyphname = idotless;
kernLeft = i;
kernRight = i;
layers = (
{
anchors = (
{
name = ogonek;
pos = (213,0);
},
{
name = top;
pos = (173,600);
}
);
layerId = m01;
shapes = (
{
closed = 1;
nodes = (
(287,660,l),
(324,515,l),
(210,655,l),
(272,600,l),
(-53,603,l),
(28,652,l),
(9,358,l),
(-81,407,l),
(165,455,l),
(103,491,l),
(44,-5,l),
(22,79,l),
(278,-39,l),
(214,-63,l),
(342,169,l),
(367,132,l),
(192,179,l),
(245,129,l)
);
}
);
width = 329;
}
);
unicode = 305;
}
{
glyphname = Lslash;
layers = (
{
layerId = m01;
shapes = (
{
ref = L;
},
{
closed = 1;
nodes = (
(-81,224,l),
(234,345,l),
(487,433,l),
(375,348,l),
(324,528,l),
(463,524,l),
(168,415,l),
(-127,313,l),
(-46,394,l),
(13,191,l)
);
}
);
width = 514;
}
);
unicode = 321;
}
{
glyphname = lslash;
layers = (
{
layerId = m01;
shapes = (
{
ref = l;
},
{
closed = 1;
nodes = (
(-79,255,l),
(236,376,l),
(489,464,l),
(362,376,l),
(311,556,l),
(465,555,l),
(170,446,l),
(-125,344,l),
(-30,427,l),
(29,224,l)
);
}
);
width = 332;
}
);
unicode = 322;
}
{
glyphname = OE;
kernLeft = O;
kernRight = E;
layers = (
{
layerId = m01;
shapes = (
{
closed = 1;
nodes = (
(577,332,l),
(833,329,l),
(800,295,l),
(816,545,l),
(847,485,l),
(590,467,l)
);
},
{
closed = 1;
nodes = (
(565,546,l),
(451,626,l),
(436,117,l),
(522,247,l),
(363,157,l),
(482,178,l),
(158,240,l),
(248,128,l),
(233,675,l),
(160,555,l),
(319,644,l),
(200,627,l)
);
},
{
closed = 1;
nodes = (
(907,571,l),
(966,860,l),
(1038,790,l),
(614,801,l),
(803,861,l),
(460,695,l),
(629,688,l),
(196,848,l),
(398,860,l),
(-88,610,l),
(66,790,l),
(29,15,l),
(-102,159,l),
(410,-18,l),
(270,0,l),
(980,0,l),
(903,-52,l),
(922,242,l),
(1008,197,l),
(587,168,l),
(629,131,l),
(643,350,l),
(648,446,l),
(663,682,l),
(606,576,l),
(729,645,l),
(637,620,l),
(954,592,l)
);
}
);
width = 934;
}
);
metricLeft = O;
metricRight = E;
unicode = 338;
}
{
glyphname = oe;
kernLeft = o;
kernRight = e;
layers = (
{
layerId = m01;
shapes = (
{
closed = 1;
nodes = (
(452,383,l),
(373,446,l),
(363,123,l),
(413,183,l),
(312,126,l),
(394,144,l),
(156,204,l),
(225,130,l),
(215,477,l),
(169,414,l),
(270,471,l),
(189,455,l)
);
},
{
closed = 1;
nodes = (
(628,-40,l),
(452,-10,l),
(836,0,l),
(783,-32,l),
(776,210,l),
(810,183,l),
(591,157,l),
(683,148,l),
(497,190,l),
(528,109,l),
(538,477,l),
(494,415,l),
(595,472,l),
(513,455,l),
(714,412,l),
(632,454,l),
(622,257,l),
(755,390,l),
(454,223,l),
(468,160,l),
(874,362,l),
(772,291,l),
(846,560,l),
(938,468,l),
(526,647,l),
(663,656,l),
(411,535,l),
(510,524,l),
(175,653,l),
(338,662,l),
(-55,468,l),
(64,608,l),
(36,5,l),
(-66,133,l),
(393,-46,l),
(262,-53,l),
(565,89,l),
(355,79,l)
);
}
);
width = 843;
},
{
associatedMasterId = m01;
layerId = "31FB63F4-B68B-4B48-A8A2-5215E0E3699C";
name = "000";
shapes = (
{
closed = 1;
nodes = (
(494,524,l),
(159,653,l),
(322,662,l),
(-71,468,l),
(48,608,l),
(20,5,l),
(-82,133,l),
(377,-46,l),
(246,-53,l),
(549,89,l),
(366,85,l),
(734,-34,l),
(674,-57,l),
(839,242,l),
(856,125,l),
(472,191,l),
(503,129,l),
(521,477,l),
(454,419,l),
(555,476,l),
(492,471,l),
(736,399,l),
(730,489,l),
(713,326,l),
(738,396,l),
(504,266,l),
(507,197,l),
(842,365,l),
(752,265,l),
(851,625,l),
(901,496,l),
(478,669,l),
(684,662,l),
(405,524,l)
);
},
{
closed = 1;
nodes = (
(436,383,l),
(357,446,l),
(347,123,l),
(397,183,l),
(296,126,l),
(378,144,l),
(140,204,l),
(209,130,l),
(199,477,l),
(153,414,l),
(254,471,l),
(173,455,l)
);
}
);
width = 829;
},
{
associatedMasterId = m01;
layerId = "12CE71D1-CF68-44E0-B091-0FC05268F443";
name = "001";
shapes = (
{
closed = 1;
nodes = (
(446,383,l),
(367,446,l),
(357,123,l),
(407,183,l),
(306,126,l),
(388,144,l),
(150,204,l),
(219,130,l),
(209,477,l),
(163,414,l),
(264,471,l),
(183,455,l)
);
},
{
closed = 1;
nodes = (
(504,524,l),
(169,653,l),
(332,662,l),
(-61,468,l),
(58,608,l),
(30,5,l),
(-72,133,l),
(387,-46,l),
(256,-53,l),
(559,89,l),
(349,79,l),
(564,-42,l),
(442,-10,l),
(811,5,l),
(758,-27,l),
(751,215,l),
(785,188,l),
(475,151,l),
(597,109,l),
(463,195,l),
(518,109,l),
(528,477,l),
(484,414,l),
(585,471,l),
(504,455,l),
(700,409,l),
(650,462,l),
(653,299,l),
(703,387,l),
(500,279,l),
(572,281,l),
(449,328,l),
(503,358,l),
(503,210,l),
(848,378,l),
(768,265,l),
(847,625,l),
(907,496,l),
(490,650,l),
(653,659,l),
(372,523,l)
);
}
);
width = 851;
}
);
metricLeft = o;
metricRight = e;
unicode = 339;
}
{
glyphname = Schwa;
kernRight = O;
layers = (
{
layerId = m01;
shapes = (
{
closed = 1;
nodes = (
(113,229,l),
(197,200,l),
(211,449,l),
(60,274,l),
(457,494,l),
(439,597,l),
(-98,330,l),
(46,448,l),
(-38,67,l),
(-183,179,l),
(363,-57,l),
(180,-70,l),
(701,179,l),
(544,-4,l),
(608,783,l),
(663,652,l),
(228,843,l),
(460,803,l),
(-55,790,l),
(15,831,l),
(25,512,l),
(-20,589,l),
(277,623,l),
(161,630,l),
(405,577,l),
(379,646,l),
(365,169,l),
(408,216,l),
(275,140,l),
(379,173,l)
);
}
);
width = 600;
}
);
unicode = 399;
}
{
glyphname = tildecomb;
layers = (
{
anchors = (
{
name = _top;
pos = (221,600);
}
);
layerId = m01;
shapes = (
{
closed = 1;
nodes = (
(128,768,l),
(304,627,l),
(241,641,l),
(411,775,l),
(411,739,l),
(313,841,l),
(383,879,l),
(238,729,l),
(307,722,l),
(139,863,l),
(201,849,l),
(31,715,l),
(31,750,l),
(129,648,l),
(59,611,l),
(204,761,l)
);
}
);
width = 441;
}
);
metricLeft = "=50";
metricRight = "=50";
unicode = 771;
}
{
glyphname = macroncomb;
layers = (
{
anchors = (
{
name = _top;
pos = (216,600);
}
);
layerId = m01;
shapes = (
{
closed = 1;
nodes = (
(-31,694,l),
(275,700,l),
(465,696,l),
(373,655,l),
(387,842,l),
(473,790,l),
(229,789,l),
(-43,794,l),
(60,842,l),
(46,631,l)
);
}
);
width = 433;
}
);
metricLeft = "=50";
metricRight = "=50";
unicode = 772;
}
{
glyphname = dotaccentcomb;
layers = (
{
anchors = (
{
name = _top;
pos = (133,600);
}
);
layerId = m01;
shapes = (
{
closed = 1;
nodes = (
(243,869,l),
(277,836,l),
(6,830,l),
(58,863,l),
(48,625,l),
(8,673,l),
(244,665,l),
(206,621,l)
);
}
);
width = 288;
}
);
metricLeft = "=50";
metricRight = "=50";
unicode = 775;
}
{
glyphname = ringcomb;
layers = (
{
anchors = (
{
name = _top;
pos = (144,600);
}
);
layerId = m01;
shapes = (
{
closed = 1;
nodes = (
(50,663,l),
(25,699,l),
(180,636,l),
(142,634,l),
(263,695,l),
(234,660,l),
(247,838,l),
(263,802,l),
(112,866,l),
(160,869,l),
(25,801,l),
(51,840,l)
);
},
{
closed = 1;
nodes = (
(192,777,l),
(175,792,l),
(177,709,l),
(192,732,l),
(132,707,l),
(193,715,l),
(103,730,l),
(113,714,l),
(121,805,l),
(95,770,l),
(155,796,l),
(102,793,l)
);
}
);
width = 295;
}
);
metricLeft = "=50";
metricRight = "=50";
unicode = 778;
}
{
glyphname = hungarumlautcomb;
layers = (
{
anchors = (
{
name = _top;
pos = (215,600);
}
);
layerId = m01;
shapes = (
{
closed = 1;
nodes = (
(305,845,l),
(347,885,l),
(225,637,l),
(214,696,l),
(394,649,l),
(284,608,l),
(493,853,l),
(482,783,l),
(450,875,l),
(497,831,l)
);
},
{
closed = 1;
nodes = (
(106,845,l),
(148,885,l),
(26,637,l),
(15,696,l),
(195,649,l),
(85,608,l),
(294,853,l),
(283,783,l),
(251,875,l),
(298,831,l)
);
}
);
width = 518;
}
);
metricLeft = "=50";
metricRight = "=50";
unicode = 779;
}
{
glyphname = caroncomb;
layers = (
{
anchors = (
{
name = _top;
pos = (183,600);
}
);
layerId = m01;
shapes = (
{
closed = 1;
nodes = (
(143,619,l),
(330,776,l),
(331,750,l),
(220,857,l),
(296,877,l),
(168,736,l),
(198,736,l),
(70,877,l),
(148,857,l),
(34,750,l),
(36,776,l),
(223,619,l)
);
}
);
width = 366;
}
);
metricLeft = "=50";
metricRight = "=50";
unicode = 780;
}
{
glyphname = ogonekcomb;
layers = (
{
anchors = (
{
name = _ogonek;
pos = (117,0);
}
);
layerId = m01;
shapes = (
{
closed = 1;
nodes = (
(73,87,l),
(143,102,l),
(37,-62,l),
(49,-27,l),
(56,-199,l),
(32,-153,l),
(146,-221,l),
(108,-227,l),
(245,-193,l),
(232,-209,l),
(198,-109,l),
(224,-115,l),
(121,-148,l),
(162,-144,l),
(99,-107,l),
(126,-138,l),
(132,-27,l),
(111,-89,l),
(195,84,l),
(204,30,l)
);
}
);
width = 278;
}
);
metricLeft = "=50";
metricRight = "=50";
unicode = 808;
}
{
glyphname = endash;
layers = (
{
layerId = m01;
shapes = (
{
closed = 1;
nodes = (
(-46,278,l),
(337,284,l),
(597,280,l),
(505,213,l),
(519,423,l),
(605,374,l),
(291,372,l),
(-58,378,l),
(45,423,l),
(31,212,l)
);
}
);
width = 551;
}
);
metricLeft = hyphen;
metricRight = hyphen;
unicode = 8211;
}
{
glyphname = trademark;
layers = (
{
layerId = m01;
shapes = (
{
closed = 1;
nodes = (
(50,752,l),
(35,580,l),
(25,600,l),
(112,600,l),
(95,580,l),
(107,781,l),
(103,767,l),
(59,741,l),
(66,756,l),
(69,732,l),
(77,742,l),
(60,736,l),
(36,725,l)
);
},
{
closed = 1;
nodes = (
(1,790,l),
(19,800,l),
(14,729,l),
(-6,737,l),
(82,740,l),
(164,740,l),
(144,732,l),
(148,803,l),
(169,790,l)
);
},
{
closed = 1;
nodes = (
(300,794,l),
(252,695,l),
(269,695,l),
(232,794,l),
(247,790,l),
(147,790,l),
(155,802,l),
(151,731,l),
(131,740,l),
(184,740,l),
(172,767,l),
(156,580,l),
(140,600,l),
(227,600,l),
(216,580,l),
(222,725,l),
(215,712,l),
(229,712,l),
(220,718,l),
(226,701,l),
(257,624,l),
(239,645,l),
(274,645,l),
(250,624,l),
(291,701,l),
(300,720,l),
(291,712,l),
(305,712,l),
(298,725,l),
(284,580,l),
(274,600,l),
(361,600,l),
(344,580,l),
(354,798,l),
(356,790,l),
(288,790,l)
);
}
);
width = 369;
}
);
unicode = 8482;
}
